<svg width="12" height="12" viewBox="0 0 12 12" fill="none" xmlns="http://www.w3.org/2000/svg">
<path d="M9.19173 5.53176L4.07874 0.191706C3.96048 0.068097 3.80262 0 3.6343 0C3.46597 0 3.30811 0.068097 3.18985 0.191706L2.81331 0.584873C2.5683 0.841066 2.5683 1.25745 2.81331 1.51326L7.10682 5.99751L2.80855 10.4867C2.69029 10.6104 2.625 10.7751 2.625 10.9508C2.625 11.1267 2.69029 11.2915 2.80855 11.4152L3.18509 11.8083C3.30344 11.9319 3.46121 12 3.62953 12C3.79786 12 3.95572 11.9319 4.07398 11.8083L9.19173 6.46336C9.31027 6.33936 9.37537 6.1738 9.375 5.99781C9.37537 5.82112 9.31027 5.65566 9.19173 5.53176Z" fill="#BDBDBD"/>
</svg>
