<svg width="33" height="32" viewBox="0 0 33 32" fill="none" xmlns="http://www.w3.org/2000/svg">
<path fill-rule="evenodd" clip-rule="evenodd" d="M16.4304 0C7.70094 0 0.623505 7.19388 0.623505 16.0679C0.623505 24.1337 6.46973 30.8085 14.0895 31.9581L14.1333 20.796L9.91334 20.842L9.86162 16.1059L14.0059 16.0619L13.9621 11.5555C14.9381 6.1764 19.6511 6.34208 19.6511 6.34208C21.2877 6.2517 23.6939 6.58376 23.6939 6.58376L23.7875 10.6047L21.4128 10.5488C19.0384 10.4726 19.1137 12.9498 19.1137 12.9498L19.1176 16.034L23.5944 16.1139L22.8439 20.7541L19.0519 20.818V31.9081C18.9866 31.9423 18.9141 31.971 18.843 32C26.6156 30.989 32.6235 24.2442 32.6235 16.0679C32.6235 7.19388 25.5481 0 16.8186 0H16.4304Z" fill="white"/>
</svg>
