<svg width="32" height="32" viewBox="0 0 32 32" fill="none" xmlns="http://www.w3.org/2000/svg">
<path fill-rule="evenodd" clip-rule="evenodd" d="M28 16.2728C28 15.4219 27.922 14.6037 27.7773 13.8183H16.2449V18.46H22.8349C22.551 19.96 21.6883 21.2309 20.3914 22.0818V25.0927H24.3488C26.6642 23.0036 28 19.9273 28 16.2728V16.2728Z" fill="white"/>
<path fill-rule="evenodd" clip-rule="evenodd" d="M16.2448 28C19.551 28 22.3228 26.9255 24.3487 25.0928L20.3914 22.0819C19.2949 22.8019 17.8923 23.2273 16.2448 23.2273C13.0556 23.2273 10.3562 21.1164 9.39327 18.2801H5.30237V21.3892C7.31721 25.3109 11.4582 28 16.2448 28V28Z" fill="white"/>
<path fill-rule="evenodd" clip-rule="evenodd" d="M9.39332 18.2799C9.14842 17.5599 9.00927 16.7909 9.00927 15.9999C9.00927 15.209 9.14842 14.44 9.39332 13.72V10.6109H5.30241C4.4731 12.2309 4 14.0636 4 15.9999C4 17.9363 4.4731 19.769 5.30241 21.389L9.39332 18.2799V18.2799Z" fill="white"/>
<path fill-rule="evenodd" clip-rule="evenodd" d="M16.2449 8.77269C18.0426 8.77269 19.6567 9.37814 20.9257 10.5672L24.4378 7.12543C22.3172 5.18908 19.5454 4 16.2449 4C11.4582 4 7.31722 6.68907 5.30238 10.6109L9.39328 13.7199C10.3562 10.8836 13.0556 8.77269 16.2449 8.77269V8.77269Z" fill="white"/>
</svg>
