<svg width="32" height="32" viewBox="0 0 32 32" fill="none" xmlns="http://www.w3.org/2000/svg">
<path d="M23.3745 16.8148C23.3404 13.5221 26.1649 11.943 26.2911 11.8645C24.704 9.62964 22.2318 9.32348 21.3508 9.28808C19.2468 9.08308 17.2454 10.4801 16.1776 10.4801C15.1125 10.4801 13.4648 9.3184 11.7198 9.34892C9.42655 9.38172 7.31202 10.6321 6.13119 12.6086C3.74853 16.5872 5.52101 22.4814 7.8433 25.7082C8.97806 27.2876 10.3312 29.0617 12.1078 28.9984C13.8186 28.9326 14.4656 27.933 16.534 27.933C18.6024 27.933 19.1838 28.9983 20.9944 28.9656C22.8354 28.9327 24.0018 27.3559 25.1287 25.7716C26.4318 23.9392 26.9684 22.1652 27 22.0741C26.9592 22.0562 23.4101 20.7478 23.3745 16.8148ZM19.9725 7.15192C20.9155 6.05104 21.5519 4.52369 21.3783 3C20.0201 3.05322 18.3737 3.87064 17.3992 4.96904C16.5248 5.94343 15.7595 7.4986 15.9646 8.99183C17.4808 9.10568 19.0286 8.25032 19.9725 7.15192Z" fill="white"/>
</svg>
