<svg width="32" height="32" viewBox="0 0 32 32" fill="none" xmlns="http://www.w3.org/2000/svg">
<path d="M25.8906 7H6.10938C4.94772 7 4 7.93212 4 9.07692V22.9231C4 24.064 4.9435 25 6.10938 25H25.8906C27.0494 25 28 24.071 28 22.9231V9.07692C28 7.936 27.0565 7 25.8906 7ZM25.5993 8.38462L16.0447 17.7923L6.40745 8.38462H25.5993ZM5.40625 22.6364V9.35703L12.1787 15.9681L5.40625 22.6364ZM6.40061 23.6154L13.1773 16.9429L15.5519 19.2609C15.8268 19.5292 16.2703 19.5283 16.5441 19.2587L18.8594 16.9791L25.5994 23.6154H6.40061ZM26.5938 22.6363L19.8537 16L26.5938 9.36363V22.6363Z" fill="white"/>
</svg>
