<svg width="157" height="82" viewBox="0 0 157 82" fill="none" xmlns="http://www.w3.org/2000/svg">
<path d="M0 43.877V38.1052L10.604 7.05453H0.481998V0.587876H20.0297V5.98566L9.26507 37.4104H20.1368V43.877H0Z" fill="white"/>
<path d="M36.8356 44.5184C33.5866 44.5184 31.0159 43.9483 29.1236 42.8082C27.2314 41.668 25.8746 40.0291 25.0534 37.8914C24.2323 35.7536 23.8217 33.2062 23.8217 30.249V14.1625C23.8217 11.1697 24.2323 8.6222 25.0534 6.52009C25.8746 4.41799 27.2314 2.81469 29.1236 1.71019C31.0159 0.570063 33.5866 0 36.8356 0C40.1203 0 42.7089 0.570063 44.6011 1.71019C46.5291 2.81469 47.9037 4.41799 48.7249 6.52009C49.5461 8.6222 49.9567 11.1697 49.9567 14.1625V30.249C49.9567 33.2062 49.5461 35.7536 48.7249 37.8914C47.9037 40.0291 46.5291 41.668 44.6011 42.8082C42.7089 43.9483 40.1203 44.5184 36.8356 44.5184ZM36.8356 37.731C37.8353 37.731 38.5672 37.4816 39.0314 36.9828C39.4955 36.484 39.799 35.8427 39.9418 35.0589C40.0846 34.275 40.156 33.4734 40.156 32.6539V11.811C40.156 10.9559 40.0846 10.1542 39.9418 9.40604C39.799 8.6222 39.4955 7.98088 39.0314 7.48208C38.5672 6.98327 37.8353 6.73387 36.8356 6.73387C35.9073 6.73387 35.2111 6.98327 34.747 7.48208C34.2828 7.98088 33.9793 8.6222 33.8365 9.40604C33.6937 10.1542 33.6223 10.9559 33.6223 11.811V32.6539C33.6223 33.4734 33.6759 34.275 33.783 35.0589C33.9258 35.8427 34.2114 36.484 34.6398 36.9828C35.104 37.4816 35.8359 37.731 36.8356 37.731Z" fill="white"/>
<path d="M55.7909 43.877V0.587876H66.7697C70.5543 0.587876 73.4998 1.06887 75.6063 2.03085C77.7128 2.9572 79.1946 4.4358 80.0514 6.46665C80.9083 8.46187 81.3368 11.0628 81.3368 14.2694V29.9818C81.3368 33.224 80.9083 35.8783 80.0514 37.9448C79.1946 39.9757 77.7128 41.4721 75.6063 42.4341C73.5355 43.396 70.6257 43.877 66.8768 43.877H55.7909ZM65.3773 37.2501H66.8768C68.3407 37.2501 69.3939 37.0363 70.0366 36.6087C70.6792 36.1812 71.072 35.5399 71.2148 34.6848C71.3933 33.8297 71.4826 32.7608 71.4826 31.4782V12.6126C71.4826 11.33 71.3755 10.2968 71.1612 9.51293C70.9827 8.72909 70.5721 8.15903 69.9295 7.80274C69.2868 7.44645 68.2514 7.2683 66.8233 7.2683H65.3773V37.2501Z" fill="white"/>
<path d="M87.2245 43.877V0.587876H96.8109V43.877H87.2245Z" fill="white"/>
<path d="M101.191 43.877L109.385 0.587876H120.31L128.397 43.877H119.56L118.114 34.7382H111.741L110.242 43.877H101.191ZM112.598 29.0198H117.204L114.901 12.1317L112.598 29.0198Z" fill="white"/>
<path d="M144.522 44.5184C141.237 44.5184 138.631 43.9305 136.703 42.7547C134.81 41.5433 133.471 39.8688 132.686 37.731C131.9 35.5577 131.508 33.0102 131.508 30.0886V14.4832C131.508 11.4903 131.9 8.92505 132.686 6.78731C133.471 4.61395 134.81 2.93939 136.703 1.76363C138.631 0.587877 141.237 0 144.522 0C147.735 0 150.234 0.534435 152.019 1.6033C153.84 2.63654 155.126 4.09733 155.875 5.98566C156.625 7.874 157 10.0474 157 12.5058V16.2468H147.628V11.9179C147.628 11.0628 147.574 10.2433 147.467 9.45948C147.396 8.67565 147.146 8.03433 146.717 7.53552C146.289 7.00109 145.557 6.73387 144.522 6.73387C143.522 6.73387 142.772 7.00109 142.272 7.53552C141.808 8.06996 141.505 8.74691 141.362 9.56637C141.255 10.3502 141.201 11.1875 141.201 12.0782V32.4401C141.201 33.4021 141.273 34.2929 141.415 35.1123C141.594 35.8962 141.915 36.5375 142.379 37.0363C142.879 37.4995 143.593 37.731 144.522 37.731C145.521 37.731 146.235 37.4816 146.664 36.9828C147.092 36.4484 147.36 35.7715 147.467 34.952C147.574 34.1325 147.628 33.2952 147.628 32.4401V27.8975H157V31.6385C157 34.0969 156.625 36.3059 155.875 38.2655C155.161 40.1894 153.894 41.7215 152.073 42.8616C150.288 43.9661 147.771 44.5184 144.522 44.5184Z" fill="white"/>
<path d="M4.41697 81.7328L4.95252 60.0882H6.98762L11.2721 78.8736L15.6368 60.0882H17.6719L18.2075 81.7328H16.5205L16.092 64.4973L11.9415 81.7328H10.6294L6.5324 64.524L6.10396 81.7328H4.41697Z" fill="white"/>
<path d="M41.5195 81.7328L46.0985 60.0882H48.2407L52.8465 81.7328H50.8382L49.767 75.9342H44.599L43.5011 81.7328H41.5195ZM44.8935 74.4645H49.4993L47.1964 62.7871L44.8935 74.4645Z" fill="white"/>
<path d="M78.0558 81.7328V61.6648H73.9588V60.0882H84.0808V61.6648H80.0909V81.7328H78.0558Z" fill="white"/>
<path d="M112.386 82C110.923 82 109.789 81.6972 108.986 81.0915C108.2 80.4858 107.656 79.6752 107.352 78.6598C107.049 77.6266 106.897 76.4864 106.897 75.2394V66.635C106.897 65.2989 107.049 64.1232 107.352 63.1078C107.674 62.0923 108.236 61.2996 109.039 60.7295C109.843 60.1595 110.958 59.8744 112.386 59.8744C113.69 59.8744 114.707 60.1238 115.439 60.6226C116.189 61.1214 116.724 61.834 117.046 62.7604C117.367 63.6689 117.528 64.7556 117.528 66.0204V67.3298H115.6V66.0739C115.6 65.1297 115.519 64.3191 115.359 63.6422C115.216 62.9652 114.912 62.4397 114.448 62.0656C113.984 61.6915 113.306 61.5045 112.413 61.5045C111.431 61.5045 110.691 61.7093 110.191 62.1191C109.709 62.511 109.378 63.0721 109.2 63.8025C109.039 64.5329 108.959 65.3791 108.959 66.3411V75.5601C108.959 76.6289 109.057 77.5197 109.253 78.2322C109.468 78.9448 109.825 79.4793 110.325 79.8355C110.824 80.1918 111.521 80.37 112.413 80.37C113.324 80.37 114.002 80.174 114.448 79.7821C114.912 79.3902 115.216 78.8468 115.359 78.1521C115.519 77.4395 115.6 76.6111 115.6 75.667V74.2507H117.528V75.5333C117.528 76.7982 117.376 77.9205 117.073 78.9003C116.787 79.8623 116.269 80.6194 115.519 81.1716C114.787 81.7239 113.743 82 112.386 82Z" fill="white"/>
<path d="M141.575 81.7328V60.0882H143.637V69.6813H150.465V60.0882H152.5V81.7328H150.465V71.2044H143.637V81.7328H141.575Z" fill="white"/>
</svg>
