<?xml version="1.0" encoding="UTF-8" standalone="no"?> <!-- Created with Vectornator for iOS (http://vectornator.io/) --><!DOCTYPE svg PUBLIC "-//W3C//DTD SVG 1.1//EN" "http://www.w3.org/Graphics/SVG/1.1/DTD/svg11.dtd">
<svg style="fill-rule:evenodd;clip-rule:evenodd;stroke-linecap:round;stroke-linejoin:round;" xmlns:vectornator="http://vectornator.io" xmlns:xlink="http://www.w3.org/1999/xlink" xmlns="http://www.w3.org/2000/svg" xml:space="preserve" version="1.1" viewBox="0 0 600 600">
<metadata>
<vectornator:setting key="DimensionsVisible" value="1"/>
<vectornator:setting key="SnapToGrid" value="0"/>
<vectornator:setting key="SnapToPoints" value="0"/>
<vectornator:setting key="GuidesVisible" value="1"/>
<vectornator:setting key="RulersVisible" value="1"/>
<vectornator:setting key="SnapToEdges" value="0"/>
<vectornator:setting key="DisplayWhiteBackground" value="0"/>
<vectornator:setting key="SnapToGuides" value="1"/>
<vectornator:setting key="GridSpacing" value="36"/>
<vectornator:setting key="Units" value="Pixels"/>
<vectornator:setting key="DynamicGuides" value="0"/>
<vectornator:setting key="New" value="1"/>
</metadata>
<defs/>
<g id="Capa 1" vectornator:layerName="Capa 1">
<g opacity="1">
<g opacity="1">
<path stroke="#ffffff" stroke-width="15.43" d="M300.865+84.3437L300.865+84.3437C407.698+84.3437+494.303+171.935+494.303+279.985L494.303+282.532C494.303+390.582+407.698+478.174+300.865+478.174L300.865+478.174C194.032+478.174+107.426+390.582+107.426+282.532L107.426+279.985C107.426+171.935+194.032+84.3437+300.865+84.3437Z" fill="none" stroke-linecap="round" opacity="1" stroke-linejoin="round"/>
<path stroke="#ffffff" stroke-width="12.14" d="M299.35+20.1076L299.35+20.1076C443.424+20.1076+560.219+136.249+560.219+279.517L560.219+282.895C560.219+426.162+443.424+542.304+299.35+542.304L299.35+542.304C155.276+542.304+38.4804+426.162+38.4804+282.895L38.4804+279.517C38.4804+136.249+155.276+20.1076+299.35+20.1076Z" fill="none" stroke-linecap="round" opacity="1" stroke-linejoin="round"/>
<path stroke="#ffffff" stroke-width="15.43" d="M73.7954+410.341L520.3+149.834" fill="none" stroke-linecap="round" opacity="1" stroke-linejoin="round"/>
<path stroke="#ffffff" stroke-width="15.43" d="M302.214+22.0286L304.39+543.585" fill="none" stroke-linecap="round" opacity="1" stroke-linejoin="round"/>
<path stroke="#ffffff" stroke-width="15.43" d="M169.514+506.603L426.757+60.6422" fill="none" stroke-linecap="round" opacity="1" stroke-linejoin="round"/>
<path stroke="#ffffff" stroke-width="15.43" d="M173.321+60.6422L436.546+498.989" fill="none" stroke-linecap="round" opacity="1" stroke-linejoin="round"/>
<path stroke="#ffffff" stroke-width="15.43" d="M38.4448+280.36L558.914+279.272" fill="none" stroke-linecap="round" opacity="1" stroke-linejoin="round"/>
<path stroke="#ffffff" stroke-width="15.43" d="M78.6901+153.641L524.651+406.534" fill="none" stroke-linecap="round" opacity="1" stroke-linejoin="round"/>
<path stroke="#ffffff" stroke-width="15.43" d="M301.856+202.52L301.856+202.52C345.078+202.52+380.117+236.969+380.117+279.465L380.117+284.449C380.117+326.944+345.078+361.394+301.856+361.394L301.856+361.394C258.634+361.394+223.596+326.944+223.596+284.449L223.596+279.465C223.596+236.969+258.634+202.52+301.856+202.52Z" fill="none" stroke-linecap="round" opacity="1" stroke-linejoin="round"/>
<path d="M164.606+454.087L164.606+454.087C169.389+454.087+173.265+457.964+173.265+462.746L173.265+463.107C173.265+467.889+169.389+471.766+164.606+471.766L164.606+471.766C159.824+471.766+155.947+467.889+155.947+463.107L155.947+462.746C155.947+457.964+159.824+454.087+164.606+454.087Z" opacity="1" fill="#ffffff"/>
<path d="M116.711+409.9L116.711+409.9C121.493+409.9+125.37+413.777+125.37+418.56L125.37+418.92C125.37+423.702+121.493+427.579+116.711+427.579L116.711+427.579C111.929+427.579+108.052+423.702+108.052+418.92L108.052+418.56C108.052+413.777+111.929+409.9+116.711+409.9Z" opacity="1" fill="#ffffff"/>
<path d="M90.8654+367.641L90.8654+367.641C95.6477+367.641+99.5246+371.518+99.5246+376.3L99.5246+376.661C99.5246+381.443+95.6477+385.32+90.8654+385.32L90.8654+385.32C86.083+385.32+82.2061+381.443+82.2061+376.661L82.2061+376.3C82.2061+371.518+86.083+367.641+90.8654+367.641Z" opacity="1" fill="#ffffff"/>
<path d="M71.5953+293.103L71.5953+293.103C76.3776+293.103+80.2545+296.98+80.2545+301.762L80.2545+302.122C80.2545+306.904+76.3776+310.781+71.5953+310.781L71.5953+310.781C66.8129+310.781+62.9361+306.904+62.9361+302.122L62.9361+301.762C62.9361+296.98+66.8129+293.103+71.5953+293.103Z" opacity="1" fill="#ffffff"/>
<path d="M71.1994+247.189L71.1994+247.189C75.9818+247.189+79.8586+251.066+79.8586+255.849L79.8586+256.209C79.8586+260.991+75.9818+264.868+71.1994+264.868L71.1994+264.868C66.4171+264.868+62.5402+260.991+62.5402+256.209L62.5402+255.849C62.5402+251.066+66.4171+247.189+71.1994+247.189Z" opacity="1" fill="#ffffff"/>
<path d="M92.0804+174.317L92.0804+174.317C96.8628+174.317+100.74+178.194+100.74+182.976L100.74+183.336C100.74+188.119+96.8628+191.995+92.0804+191.995L92.0804+191.995C87.2981+191.995+83.4212+188.119+83.4212+183.336L83.4212+182.976C83.4212+178.194+87.2981+174.317+92.0804+174.317Z" opacity="1" fill="#ffffff"/>
<path d="M117.166+138.556L117.166+138.556C121.949+138.556+125.825+142.433+125.825+147.215L125.825+147.576C125.825+152.358+121.949+156.235+117.166+156.235L117.166+156.235C112.384+156.235+108.507+152.358+108.507+147.576L108.507+147.215C108.507+142.433+112.384+138.556+117.166+138.556Z" opacity="1" fill="#ffffff"/>
<path d="M168.939+83.314L168.939+83.314C173.721+83.314+177.598+87.1909+177.598+91.9732L177.598+92.3334C177.598+97.1157+173.721+100.993+168.939+100.993L168.939+100.993C164.157+100.993+160.28+97.1157+160.28+92.3334L160.28+91.9732C160.28+87.1909+164.157+83.314+168.939+83.314Z" opacity="1" fill="#ffffff"/>
<path d="M202.298+65.1668L202.298+65.1668C207.08+65.1668+210.957+69.0437+210.957+73.826L210.957+74.1862C210.957+78.9685+207.08+82.8454+202.298+82.8454L202.298+82.8454C197.516+82.8454+193.639+78.9685+193.639+74.1862L193.639+73.826C193.639+69.0437+197.516+65.1668+202.298+65.1668Z" opacity="1" fill="#ffffff"/>
<path d="M279.723+44.1084L279.723+44.1084C284.505+44.1084+288.382+47.9853+288.382+52.7676L288.382+53.1278C288.382+57.9101+284.505+61.787+279.723+61.787L279.723+61.787C274.94+61.787+271.063+57.9101+271.063+53.1278L271.063+52.7676C271.063+47.9853+274.94+44.1084+279.723+44.1084Z" opacity="1" fill="#ffffff"/>
<path d="M329.525+45.2639L329.525+45.2639C334.307+45.2639+338.184+49.1407+338.184+53.9231L338.184+54.2832C338.184+59.0656+334.307+62.9424+329.525+62.9424L329.525+62.9424C324.742+62.9424+320.865+59.0656+320.865+54.2832L320.865+53.9231C320.865+49.1407+324.742+45.2639+329.525+45.2639Z" opacity="1" fill="#ffffff"/>
<path d="M394.335+64.6437L394.335+64.6437C399.117+64.6437+402.994+68.5206+402.994+73.3029L402.994+73.6631C402.994+78.4454+399.117+82.3223+394.335+82.3223L394.335+82.3223C389.552+82.3223+385.676+78.4454+385.676+73.6631L385.676+73.3029C385.676+68.5206+389.552+64.6437+394.335+64.6437Z" opacity="1" fill="#ffffff"/>
<path d="M432.971+86.9922L432.971+86.9922C437.753+86.9922+441.63+90.869+441.63+95.6514L441.63+96.0115C441.63+100.794+437.753+104.671+432.971+104.671L432.971+104.671C428.189+104.671+424.312+100.794+424.312+96.0115L424.312+95.6514C424.312+90.869+428.189+86.9922+432.971+86.9922Z" opacity="1" fill="#ffffff"/>
<path d="M480.671+136.24L480.671+136.24C485.453+136.24+489.33+140.116+489.33+144.899L489.33+145.259C489.33+150.041+485.453+153.918+480.671+153.918L480.671+153.918C475.888+153.918+472.011+150.041+472.011+145.259L472.011+144.899C472.011+140.116+475.888+136.24+480.671+136.24Z" opacity="1" fill="#ffffff"/>
<path d="M503.774+175.923L503.774+175.923C508.556+175.923+512.433+179.8+512.433+184.582L512.433+184.943C512.433+189.725+508.556+193.602+503.774+193.602L503.774+193.602C498.991+193.602+495.114+189.725+495.114+184.943L495.114+184.582C495.114+179.8+498.991+175.923+503.774+175.923Z" opacity="1" fill="#ffffff"/>
<path d="M526.838+249.753L526.838+249.753C531.62+249.753+535.497+253.63+535.497+258.412L535.497+258.772C535.497+263.554+531.62+267.431+526.838+267.431L526.838+267.431C522.056+267.431+518.179+263.554+518.179+258.772L518.179+258.412C518.179+253.63+522.056+249.753+526.838+249.753Z" opacity="1" fill="#ffffff"/>
<path d="M525.692+293.705L525.692+293.705C530.474+293.705+534.351+297.582+534.351+302.364L534.351+302.724C534.351+307.507+530.474+311.384+525.692+311.384L525.692+311.384C520.91+311.384+517.033+307.507+517.033+302.724L517.033+302.364C517.033+297.582+520.91+293.705+525.692+293.705Z" opacity="1" fill="#ffffff"/>
<path d="M511.822+364.974L511.822+364.974C516.605+364.974+520.482+368.851+520.482+373.633L520.482+373.993C520.482+378.775+516.605+382.652+511.822+382.652L511.822+382.652C507.04+382.652+503.163+378.775+503.163+373.993L503.163+373.633C503.163+368.851+507.04+364.974+511.822+364.974Z" opacity="1" fill="#ffffff"/>
<path d="M490.635+402.952L490.635+402.952C495.417+402.952+499.294+406.829+499.294+411.611L499.294+411.971C499.294+416.754+495.417+420.631+490.635+420.631L490.635+420.631C485.852+420.631+481.975+416.754+481.975+411.971L481.975+411.611C481.975+406.829+485.852+402.952+490.635+402.952Z" opacity="1" fill="#ffffff"/>
<path d="M441.263+457.321L441.263+457.321C446.045+457.321+449.922+461.198+449.922+465.98L449.922+466.34C449.922+471.123+446.045+475+441.263+475L441.263+475C436.48+475+432.604+471.123+432.604+466.34L432.604+465.98C432.604+461.198+436.48+457.321+441.263+457.321Z" opacity="1" fill="#ffffff"/>
<path d="M405.868+477.666L405.868+477.666C410.651+477.666+414.527+481.543+414.527+486.325L414.527+486.685C414.527+491.468+410.651+495.345+405.868+495.345L405.868+495.345C401.086+495.345+397.209+491.468+397.209+486.685L397.209+486.325C397.209+481.543+401.086+477.666+405.868+477.666Z" opacity="1" fill="#ffffff"/>
<path d="M326.997+501.913L326.997+501.913C331.779+501.913+335.656+505.79+335.656+510.572L335.656+510.932C335.656+515.714+331.779+519.591+326.997+519.591L326.997+519.591C322.214+519.591+318.338+515.714+318.338+510.932L318.338+510.572C318.338+505.79+322.214+501.913+326.997+501.913Z" opacity="1" fill="#ffffff"/>
<path d="M285.084+503.883L285.084+503.883C289.867+503.883+293.744+507.759+293.744+512.542L293.744+512.902C293.744+517.684+289.867+521.561+285.084+521.561L285.084+521.561C280.302+521.561+276.425+517.684+276.425+512.902L276.425+512.542C276.425+507.759+280.302+503.883+285.084+503.883Z" opacity="1" fill="#ffffff"/>
<path d="M204.55+480.668L204.55+480.668C209.332+480.668+213.209+484.545+213.209+489.328L213.209+489.688C213.209+494.47+209.332+498.347+204.55+498.347L204.55+498.347C199.768+498.347+195.891+494.47+195.891+489.688L195.891+489.328C195.891+484.545+199.768+480.668+204.55+480.668Z" opacity="1" fill="#ffffff"/>
</g>
<path stroke="#ffffff" stroke-width="12.14" d="M298.191+211.831L307.609+211.831C344.413+211.831+374.248+242.324+374.248+279.938L374.248+279.938C374.248+317.553+344.413+348.045+307.609+348.045L298.191+348.045C261.388+348.045+231.552+317.553+231.552+279.938L231.552+279.938C231.552+242.324+261.388+211.831+298.191+211.831Z" fill="#ffffff" stroke-linecap="round" opacity="1" stroke-linejoin="round"/>
</g>
</g>
</svg>
